<svg width="1024" height="852" viewBox="0 0 1024 852" fill="none" xmlns="http://www.w3.org/2000/svg">
<path fill-rule="evenodd" clip-rule="evenodd" d="M557.997 41.5548C570.403 44.3048 582.364 48.2355 593.757 53.223C605.129 58.2013 615.935 64.2324 626.052 71.1931C632.7 75.7677 639.051 80.7438 645.07 86.0864C685.337 121.832 710.712 173.986 710.712 232.066C710.712 260.414 704.667 287.35 693.795 311.656C703.824 318.805 714.655 324.901 726.129 329.779C739.935 300.081 747.642 266.973 747.642 232.066C747.642 161.802 716.416 98.8319 667.083 56.2758C661.022 51.0471 654.687 46.1266 648.104 41.5385C637.847 34.3912 626.987 28.0507 615.614 22.6093C597.575 13.9781 578.247 7.60872 557.997 3.86826V41.5548Z" fill="black"/>
<path fill-rule="evenodd" clip-rule="evenodd" d="M534.042 0.723915C527.95 0.244332 521.792 0 515.577 0C479.756 0 445.83 8.11592 415.539 22.6092C404.167 28.0507 393.306 34.3911 383.05 41.5385C376.466 46.1266 370.132 51.0471 364.07 56.2758C314.738 98.8319 283.511 161.802 283.511 232.066C283.511 266.973 291.218 300.081 305.024 329.779C316.498 324.901 327.33 318.805 337.358 311.656C326.487 287.35 320.442 260.414 320.442 232.066C320.442 173.986 345.816 121.832 386.084 86.0864C392.102 80.7438 398.453 75.7677 405.102 71.1931C415.219 64.2324 426.025 58.2013 437.397 53.223C455.971 45.0919 476.055 39.7696 497.111 37.7932V463.407C503.203 463.887 509.361 464.131 515.577 464.131C586.756 464.131 650.451 432.086 693.02 381.634C701.097 372.061 708.414 361.826 714.877 351.02C703.505 346.042 692.699 340.011 682.582 333.05C631.576 297.956 598.089 239.232 597.923 172.677L597.923 172.653L597.922 172.632V172.615L597.922 172.596L597.922 172.582L597.922 172.562V172.53V172.483L596.924 116.282L560.992 106.8L560.992 172.677C561.034 192.35 563.523 211.448 568.172 229.683C568.934 232.674 569.755 235.643 570.633 238.587C585.804 289.475 617.963 333.04 660.531 362.705C628.682 398.02 584.112 421.638 534.042 426.338V0.723915Z" fill="black"/>
<path fill-rule="evenodd" clip-rule="evenodd" d="M440.778 285.289C441.927 283.234 443.046 281.159 444.134 279.066C460.692 247.214 470.081 211.038 470.162 172.677V106.8L434.229 116.282L433.231 172.677C433.064 239.232 399.578 297.956 348.571 333.05C338.454 340.011 327.648 346.042 316.276 351.02C322.739 361.826 330.056 372.061 338.133 381.634C372.038 421.816 419.342 450.323 473.156 460.263V422.577C432.884 413.649 397.293 392.278 370.623 362.705C399.471 342.601 423.538 316.113 440.778 285.289Z" fill="black"/>
<path d="M974.422 763.571H941.783C926.013 763.571 913.835 759.379 905.251 750.994C896.667 742.61 892.375 730.533 892.375 714.762V619.84C892.375 604.069 896.667 591.992 905.251 583.608C913.835 575.223 926.013 571.031 941.783 571.031H974.422C989.993 571.031 1002.07 575.323 1010.65 583.907C1019.44 592.291 1023.83 604.269 1023.83 619.84V633.914C1023.83 638.305 1021.63 640.501 1017.24 640.501H992.089C987.897 640.501 985.801 638.305 985.801 633.914V621.637C985.801 615.248 984.403 610.757 981.609 608.162C979.013 605.367 974.522 603.97 968.134 603.97H947.772C941.583 603.97 937.092 605.367 934.297 608.162C931.702 610.757 930.404 615.248 930.404 621.637V712.966C930.404 719.354 931.702 723.945 934.297 726.74C937.092 729.335 941.583 730.633 947.772 730.633H968.134C974.522 730.633 979.013 729.335 981.609 726.74C984.403 723.945 985.801 719.354 985.801 712.966V700.689C985.801 696.297 987.897 694.101 992.089 694.101H1017.24C1021.63 694.101 1023.83 696.297 1023.83 700.689V714.762C1023.83 730.333 1019.44 742.411 1010.65 750.994C1002.07 759.379 989.993 763.571 974.422 763.571Z" fill="black"/>
<path d="M813.297 763.571H780.659C764.888 763.571 752.711 759.379 744.127 750.994C735.543 742.61 731.251 730.533 731.251 714.762V619.84C731.251 604.069 735.543 591.992 744.127 583.608C752.711 575.223 764.888 571.031 780.659 571.031H813.297C828.868 571.031 840.946 575.323 849.53 583.907C858.313 592.291 862.705 604.269 862.705 619.84V633.914C862.705 638.305 860.509 640.501 856.117 640.501H830.964C826.772 640.501 824.676 638.305 824.676 633.914V621.637C824.676 615.248 823.279 610.757 820.484 608.162C817.889 605.367 813.397 603.97 807.009 603.97H786.647C780.459 603.97 775.967 605.367 773.173 608.162C770.577 610.757 769.28 615.248 769.28 621.637V712.966C769.28 719.354 770.577 723.945 773.173 726.74C775.967 729.335 780.459 730.633 786.647 730.633H807.009C813.397 730.633 817.889 729.335 820.484 726.74C823.279 723.945 824.676 719.354 824.676 712.966V700.689C824.676 696.297 826.772 694.101 830.964 694.101H856.117C860.509 694.101 862.705 696.297 862.705 700.689V714.762C862.705 730.333 858.313 742.411 849.53 750.994C840.946 759.379 828.868 763.571 813.297 763.571Z" fill="black"/>
<path d="M568.038 714.463V708.474C568.038 704.282 570.134 702.186 574.326 702.186H599.778C603.971 702.186 606.067 704.282 606.067 708.474V710.87C606.067 718.455 607.564 723.646 610.558 726.44C613.553 729.235 619.042 730.633 627.027 730.633H641.101C648.887 730.633 654.276 729.135 657.271 726.141C660.465 723.147 662.062 717.557 662.062 709.372V705.779C662.062 699.99 659.666 695.598 654.875 692.604C650.284 689.41 644.495 687.513 637.508 686.914C630.521 686.315 622.935 685.218 614.75 683.621C606.765 681.824 599.279 679.628 592.292 677.033C585.306 674.238 579.417 668.948 574.625 661.163C570.034 653.178 567.738 642.997 567.738 630.62V620.139C567.738 604.568 572.13 592.491 580.914 583.907C589.697 575.323 601.875 571.031 617.445 571.031H647.389C663.16 571.031 675.437 575.323 684.22 583.907C693.004 592.491 697.396 604.568 697.396 620.139V625.829C697.396 630.021 695.3 632.117 691.107 632.117H665.655C661.463 632.117 659.367 630.021 659.367 625.829V624.032C659.367 616.247 657.87 610.957 654.875 608.162C651.881 605.367 646.391 603.97 638.406 603.97H626.728C618.543 603.97 612.954 605.567 609.959 608.761C607.165 611.755 605.767 617.744 605.767 626.727V632.416C605.767 641.799 613.952 647.189 630.321 648.586C647.289 649.983 662.361 653.377 675.537 658.767C682.524 661.761 688.313 667.151 692.904 674.937C697.695 682.523 700.091 692.304 700.091 704.282V714.463C700.091 730.034 695.699 742.111 686.915 750.695C678.132 759.279 665.955 763.571 650.384 763.571H617.745C602.174 763.571 589.997 759.279 581.213 750.695C572.43 742.111 568.038 730.034 568.038 714.463Z" fill="black"/>
<path d="M535.242 683.321H478.349C474.156 683.321 472.06 681.225 472.06 677.033V659.366C472.06 654.974 474.156 652.778 478.349 652.778H535.242C539.434 652.778 541.53 654.974 541.53 659.366V677.033C541.53 681.225 539.434 683.321 535.242 683.321Z" fill="black"/>
<path d="M394.529 763.571H362.788C347.018 763.571 334.841 759.379 326.257 750.994C317.673 742.61 313.381 730.533 313.381 714.762V619.84C313.381 604.069 317.673 591.992 326.257 583.608C334.841 575.223 347.018 571.031 362.788 571.031H394.529C410.1 571.031 422.177 575.323 430.761 583.907C439.345 592.291 443.637 604.269 443.637 619.84V628.823C443.637 633.215 441.541 635.411 437.349 635.411H411.896C407.704 635.411 405.608 633.215 405.608 628.823V621.637C405.608 615.248 404.311 610.757 401.716 608.162C399.12 605.367 394.629 603.97 388.241 603.97H368.777C362.589 603.97 358.097 605.367 355.302 608.162C352.707 610.757 351.41 615.248 351.41 621.637V712.966C351.41 719.354 352.707 723.945 355.302 726.74C358.097 729.335 362.589 730.633 368.777 730.633H388.241C394.629 730.633 399.12 729.335 401.716 726.74C404.311 723.945 405.608 719.354 405.608 712.966V694.101C405.608 691.905 404.51 690.807 402.314 690.807H384.348C380.156 690.807 378.06 688.711 378.06 684.519V664.157C378.06 659.965 380.156 657.869 384.348 657.869H436.75C441.341 657.869 443.637 660.164 443.637 664.756V714.762C443.637 730.333 439.345 742.411 430.761 750.994C422.177 759.379 410.1 763.571 394.529 763.571Z" fill="black"/>
<path d="M277.294 763.571H179.377C175.185 763.571 173.089 761.475 173.089 757.283V577.319C173.089 573.127 175.185 571.031 179.377 571.031H277.294C281.286 571.031 283.282 573.127 283.282 577.319V597.681C283.282 601.874 281.286 603.97 277.294 603.97H214.711C212.315 603.97 211.117 605.068 211.117 607.263V646.191C211.117 648.386 212.315 649.484 214.711 649.484H265.915C270.107 649.484 272.203 651.581 272.203 655.773V676.135C272.203 680.327 270.107 682.423 265.915 682.423H214.711C212.315 682.423 211.117 683.521 211.117 685.717V727.339C211.117 729.535 212.315 730.633 214.711 730.633H277.294C281.286 730.633 283.282 732.729 283.282 736.921V757.283C283.282 761.475 281.286 763.571 277.294 763.571Z" fill="black"/>
<path d="M104.047 571.031H129.2C133.591 571.031 135.787 573.028 135.787 577.02V714.762C135.787 730.333 131.396 742.411 122.612 750.994C114.028 759.379 101.951 763.571 86.3798 763.571H53.4415C37.671 763.571 25.4938 759.379 16.9098 750.994C8.3259 742.61 4.03394 730.533 4.03394 714.762V577.319C4.03394 573.127 6.13001 571.031 10.3222 571.031H35.7745C39.9667 571.031 42.0628 573.127 42.0628 577.319V712.966C42.0628 719.354 43.3603 723.945 45.9555 726.74C48.7503 729.335 53.2418 730.633 59.4303 730.633H80.0916C86.4796 730.633 90.9712 729.335 93.5664 726.74C96.3612 723.945 97.7585 719.354 97.7585 712.966V577.319C97.7585 573.127 99.8546 571.031 104.047 571.031Z" fill="black"/>
<path d="M999.102 851.407H994.574C993.76 851.407 993.353 851 993.353 850.185V806.419C993.353 805.605 993.76 805.197 994.574 805.197H1011.39C1014.89 805.197 1017.62 806.203 1019.58 808.216C1021.6 810.18 1022.6 812.911 1022.6 816.408V822.445C1022.6 827.955 1020.33 831.428 1015.77 832.865V833.153L1023.75 849.969C1024.28 850.928 1023.97 851.407 1022.82 851.407H1018.36C1017.21 851.407 1016.47 851 1016.13 850.185L1008.44 833.656H1001.19C1000.61 833.656 1000.32 833.896 1000.32 834.375V850.185C1000.32 851 999.916 851.407 999.102 851.407ZM1001.11 827.907H1010.24C1013.79 827.907 1015.56 826.158 1015.56 822.661V816.624C1015.56 813.079 1013.79 811.306 1010.24 811.306H1001.11C1000.59 811.306 1000.32 811.545 1000.32 812.024V827.188C1000.32 827.667 1000.59 827.907 1001.11 827.907Z" fill="black"/>
<path d="M983.042 851.407H960.045C959.231 851.407 958.823 851 958.823 850.185V806.419C958.823 805.605 959.231 805.197 960.045 805.197H983.042C983.809 805.197 984.192 805.605 984.192 806.419V810.084C984.192 810.899 983.809 811.306 983.042 811.306H966.657C966.082 811.306 965.794 811.545 965.794 812.024V824.17C965.794 824.649 966.082 824.888 966.657 824.888H980.527C981.389 824.888 981.82 825.296 981.82 826.11V829.775C981.82 830.59 981.389 830.997 980.527 830.997H966.657C966.082 830.997 965.794 831.237 965.794 831.716V844.508C965.794 845.035 966.082 845.298 966.657 845.298H983.042C983.809 845.298 984.192 845.705 984.192 846.52V850.185C984.192 851 983.809 851.407 983.042 851.407Z" fill="black"/>
<path d="M940.311 851.407H935.784C934.921 851.407 934.49 851 934.49 850.185V812.024C934.49 811.545 934.251 811.306 933.772 811.306H924.717C923.854 811.306 923.423 810.899 923.423 810.084V806.419C923.423 805.605 923.854 805.197 924.717 805.197H951.379C952.241 805.197 952.672 805.605 952.672 806.419V810.084C952.672 810.899 952.241 811.306 951.379 811.306H942.324C941.797 811.306 941.533 811.545 941.533 812.024V850.185C941.533 851 941.126 851.407 940.311 851.407Z" fill="black"/>
<path d="M891.442 851.407H886.987C886.172 851.407 885.765 851 885.765 850.185V806.419C885.765 805.605 886.172 805.197 886.987 805.197H891.011C891.778 805.197 892.305 805.461 892.592 805.988L909.984 837.249H910.271V806.419C910.271 805.605 910.678 805.197 911.493 805.197H915.948C916.763 805.197 917.17 805.605 917.17 806.419V850.185C917.17 851 916.763 851.407 915.948 851.407H912.068C911.301 851.407 910.678 851.024 910.199 850.257L892.951 819.355H892.664V850.185C892.664 851 892.257 851.407 891.442 851.407Z" fill="black"/>
<path d="M875.454 851.407H852.457C851.643 851.407 851.236 851 851.236 850.185V806.419C851.236 805.605 851.643 805.197 852.457 805.197H875.454C876.221 805.197 876.604 805.605 876.604 806.419V810.084C876.604 810.899 876.221 811.306 875.454 811.306H859.069C858.494 811.306 858.207 811.545 858.207 812.024V824.17C858.207 824.649 858.494 824.888 859.069 824.888H872.939C873.801 824.888 874.233 825.296 874.233 826.11V829.775C874.233 830.59 873.801 830.997 872.939 830.997H859.069C858.494 830.997 858.207 831.237 858.207 831.716V844.508C858.207 845.035 858.494 845.298 859.069 845.298H875.454C876.221 845.298 876.604 845.705 876.604 846.52V850.185C876.604 851 876.221 851.407 875.454 851.407Z" fill="black"/>
<path d="M831.182 851.407H822.846C819.301 851.407 816.546 850.425 814.582 848.46C812.665 846.496 811.707 843.765 811.707 840.268V816.336C811.707 812.791 812.665 810.06 814.582 808.144C816.546 806.179 819.301 805.197 822.846 805.197H831.182C834.68 805.197 837.411 806.179 839.375 808.144C841.339 810.06 842.322 812.791 842.322 816.336V819.786C842.322 820.648 841.89 821.08 841.028 821.08H836.5C835.686 821.08 835.279 820.648 835.279 819.786V816.624C835.279 813.079 833.554 811.306 830.104 811.306H823.852C820.403 811.306 818.678 813.079 818.678 816.624V839.98C818.678 843.526 820.403 845.298 823.852 845.298H830.104C833.554 845.298 835.279 843.526 835.279 839.98V836.818C835.279 835.956 835.686 835.525 836.5 835.525H841.028C841.89 835.525 842.322 835.956 842.322 836.818V840.268C842.322 843.765 841.339 846.496 839.375 848.46C837.411 850.425 834.68 851.407 831.182 851.407Z" fill="black"/>
<path d="M787.454 851.407H764.17C763.355 851.407 762.948 851 762.948 850.185V806.419C762.948 805.605 763.355 805.197 764.17 805.197H768.697C769.512 805.197 769.919 805.605 769.919 806.419V844.436C769.919 844.915 770.206 845.154 770.781 845.154H787.454C788.268 845.154 788.676 845.586 788.676 846.448V850.185C788.676 851 788.268 851.407 787.454 851.407Z" fill="black"/>
<path d="M734.722 845.298H740.974C744.472 845.298 746.221 843.526 746.221 839.98V816.624C746.221 813.079 744.472 811.306 740.974 811.306H734.722C731.273 811.306 729.548 813.079 729.548 816.624V839.98C729.548 843.526 731.273 845.298 734.722 845.298ZM742.052 851.407H733.716C730.171 851.407 727.416 850.425 725.451 848.46C723.535 846.496 722.577 843.765 722.577 840.268V816.336C722.577 812.791 723.535 810.06 725.451 808.144C727.416 806.179 730.171 805.197 733.716 805.197H742.052C745.598 805.197 748.353 806.179 750.317 808.144C752.281 810.06 753.263 812.791 753.263 816.336V840.268C753.263 843.765 752.281 846.496 750.317 848.46C748.353 850.425 745.598 851.407 742.052 851.407Z" fill="black"/>
<path d="M690.094 851.407H685.567C684.752 851.407 684.345 851 684.345 850.185V806.419C684.345 805.605 684.752 805.197 685.567 805.197H702.383C705.881 805.197 708.612 806.203 710.576 808.216C712.588 810.18 713.594 812.911 713.594 816.408V822.445C713.594 827.955 711.318 831.428 706.767 832.865V833.153L714.744 849.969C715.271 850.928 714.96 851.407 713.81 851.407H709.354C708.204 851.407 707.462 851 707.126 850.185L699.437 833.656H692.178C691.603 833.656 691.316 833.896 691.316 834.375V850.185C691.316 851 690.909 851.407 690.094 851.407ZM692.106 827.907H701.233C704.779 827.907 706.551 826.158 706.551 822.661V816.624C706.551 813.079 704.779 811.306 701.233 811.306H692.106C691.579 811.306 691.316 811.545 691.316 812.024V827.188C691.316 827.667 691.579 827.907 692.106 827.907Z" fill="black"/>
<path d="M665.833 851.407H661.305C660.443 851.407 660.012 851 660.012 850.185V812.024C660.012 811.545 659.772 811.306 659.293 811.306H650.238C649.376 811.306 648.944 810.899 648.944 810.084V806.419C648.944 805.605 649.376 805.197 650.238 805.197H676.9C677.762 805.197 678.194 805.605 678.194 806.419V810.084C678.194 810.899 677.762 811.306 676.9 811.306H667.845C667.318 811.306 667.055 811.545 667.055 812.024V850.185C667.055 851 666.647 851.407 665.833 851.407Z" fill="black"/>
<path d="M616.964 851.407H612.508C611.694 851.407 611.286 851 611.286 850.185V806.419C611.286 805.605 611.694 805.197 612.508 805.197H616.533C617.299 805.197 617.826 805.461 618.114 805.988L635.505 837.249H635.792V806.419C635.792 805.605 636.2 805.197 637.014 805.197H641.47C642.284 805.197 642.692 805.605 642.692 806.419V850.185C642.692 851 642.284 851.407 641.47 851.407H637.589C636.823 851.407 636.2 851.024 635.721 850.257L618.473 819.355H618.185V850.185C618.185 851 617.778 851.407 616.964 851.407Z" fill="black"/>
<path d="M583.061 845.298H589.313C592.81 845.298 594.559 843.526 594.559 839.98V816.624C594.559 813.079 592.81 811.306 589.313 811.306H583.061C579.611 811.306 577.886 813.079 577.886 816.624V839.98C577.886 843.526 579.611 845.298 583.061 845.298ZM590.391 851.407H582.054C578.509 851.407 575.754 850.425 573.79 848.46C571.874 846.496 570.915 843.765 570.915 840.268V816.336C570.915 812.791 571.874 810.06 573.79 808.144C575.754 806.179 578.509 805.197 582.054 805.197H590.391C593.936 805.197 596.691 806.179 598.655 808.144C600.62 810.06 601.602 812.791 601.602 816.336V840.268C601.602 843.765 600.62 846.496 598.655 848.46C596.691 850.425 593.936 851.407 590.391 851.407Z" fill="black"/>
<path d="M551.581 851.407H543.244C539.699 851.407 536.944 850.425 534.98 848.46C533.063 846.496 532.105 843.765 532.105 840.268V816.336C532.105 812.791 533.063 810.06 534.98 808.144C536.944 806.179 539.699 805.197 543.244 805.197H551.581C555.078 805.197 557.809 806.179 559.773 808.144C561.738 810.06 562.72 812.791 562.72 816.336V819.786C562.72 820.648 562.289 821.08 561.426 821.08H556.899C556.084 821.08 555.677 820.648 555.677 819.786V816.624C555.677 813.079 553.952 811.306 550.503 811.306H544.25C540.801 811.306 539.076 813.079 539.076 816.624V839.98C539.076 843.526 540.801 845.298 544.25 845.298H550.503C553.952 845.298 555.677 843.526 555.677 839.98V836.818C555.677 835.956 556.084 835.525 556.899 835.525H561.426C562.289 835.525 562.72 835.956 562.72 836.818V840.268C562.72 843.765 561.738 846.496 559.773 848.46C557.809 850.425 555.078 851.407 551.581 851.407Z" fill="black"/>
<path d="M497.187 851.407H492.66C491.798 851.407 491.366 851 491.366 850.185V812.024C491.366 811.545 491.127 811.306 490.648 811.306H481.593C480.73 811.306 480.299 810.899 480.299 810.084V806.419C480.299 805.605 480.73 805.197 481.593 805.197H508.255C509.117 805.197 509.548 805.605 509.548 806.419V810.084C509.548 810.899 509.117 811.306 508.255 811.306H499.2C498.673 811.306 498.409 811.545 498.409 812.024V850.185C498.409 851 498.002 851.407 497.187 851.407Z" fill="black"/>
<path d="M449.022 851.407H444.494C443.68 851.407 443.273 851 443.273 850.185V806.419C443.273 805.605 443.68 805.197 444.494 805.197H449.022C449.836 805.197 450.244 805.605 450.244 806.419V824.385C450.244 824.864 450.531 825.104 451.106 825.104H466.27C466.749 825.104 466.988 824.864 466.988 824.385V806.419C466.988 805.605 467.395 805.197 468.21 805.197H472.809C473.624 805.197 474.031 805.605 474.031 806.419V850.185C474.031 851 473.624 851.407 472.809 851.407H468.21C467.395 851.407 466.988 851 466.988 850.185V832.003C466.988 831.524 466.749 831.284 466.27 831.284H451.106C450.531 831.284 450.244 831.524 450.244 832.003V850.185C450.244 851 449.836 851.407 449.022 851.407Z" fill="black"/>
<path d="M422.362 851.407H414.672C411.127 851.407 408.372 850.425 406.408 848.46C404.491 846.496 403.533 843.765 403.533 840.268V816.336C403.533 812.791 404.491 810.06 406.408 808.144C408.372 806.179 411.127 805.197 414.672 805.197H422.362C425.907 805.197 428.638 806.179 430.555 808.144C432.519 810.06 433.501 812.791 433.501 816.336V818.924C433.501 819.786 433.094 820.217 432.279 820.217H427.752C426.937 820.217 426.53 819.786 426.53 818.924V816.624C426.53 813.079 424.805 811.306 421.356 811.306H415.679C412.229 811.306 410.504 813.079 410.504 816.624V839.98C410.504 843.526 412.229 845.298 415.679 845.298H421.356C424.805 845.298 426.53 843.526 426.53 839.98V833.512C426.53 833.033 426.267 832.794 425.74 832.794H419.919C419.104 832.794 418.697 832.386 418.697 831.572V827.907C418.697 827.092 419.104 826.685 419.919 826.685H431.992C432.998 826.685 433.501 827.188 433.501 828.194V840.268C433.501 843.765 432.519 846.496 430.555 848.46C428.59 850.425 425.859 851.407 422.362 851.407Z" fill="black"/>
<path d="M393.405 806.419V850.185C393.405 851 392.998 851.407 392.184 851.407H387.656C386.842 851.407 386.434 851 386.434 850.185V806.419C386.434 805.605 386.842 805.197 387.656 805.197H392.184C392.998 805.197 393.405 805.605 393.405 806.419Z" fill="black"/>
<path d="M378.228 851.407H354.943C354.129 851.407 353.721 851 353.721 850.185V806.419C353.721 805.605 354.129 805.197 354.943 805.197H359.471C360.285 805.197 360.692 805.605 360.692 806.419V844.436C360.692 844.915 360.98 845.154 361.555 845.154H378.228C379.042 845.154 379.449 845.586 379.449 846.448V850.185C379.449 851 379.042 851.407 378.228 851.407Z" fill="black"/>
<path d="M326.836 851.407H322.309C321.494 851.407 321.087 851 321.087 850.185V806.419C321.087 805.605 321.494 805.197 322.309 805.197H344.875C345.689 805.197 346.096 805.605 346.096 806.419V810.084C346.096 810.899 345.689 811.306 344.875 811.306H328.921C328.346 811.306 328.058 811.545 328.058 812.024V825.607C328.058 826.134 328.346 826.398 328.921 826.398H342.791C343.653 826.398 344.084 826.805 344.084 827.619V831.213C344.084 832.075 343.653 832.506 342.791 832.506H328.921C328.346 832.506 328.058 832.746 328.058 833.225V850.185C328.058 851 327.651 851.407 326.836 851.407Z" fill="black"/>
<path d="M310.777 851.407H287.78C286.965 851.407 286.558 851 286.558 850.185V806.419C286.558 805.605 286.965 805.197 287.78 805.197H310.777C311.543 805.197 311.927 805.605 311.927 806.419V810.084C311.927 810.899 311.543 811.306 310.777 811.306H294.391C293.817 811.306 293.529 811.545 293.529 812.024V824.17C293.529 824.649 293.817 824.888 294.391 824.888H308.261C309.124 824.888 309.555 825.296 309.555 826.11V829.775C309.555 830.59 309.124 830.997 308.261 830.997H294.391C293.817 830.997 293.529 831.237 293.529 831.716V844.508C293.529 845.035 293.817 845.298 294.391 845.298H310.777C311.543 845.298 311.927 845.705 311.927 846.52V850.185C311.927 851 311.543 851.407 310.777 851.407Z" fill="black"/>
<path d="M266.505 851.407H258.168C254.623 851.407 251.868 850.425 249.904 848.46C247.987 846.496 247.029 843.765 247.029 840.268V816.336C247.029 812.791 247.987 810.06 249.904 808.144C251.868 806.179 254.623 805.197 258.168 805.197H266.505C270.002 805.197 272.733 806.179 274.697 808.144C276.662 810.06 277.644 812.791 277.644 816.336V819.786C277.644 820.648 277.213 821.08 276.35 821.08H271.823C271.008 821.08 270.601 820.648 270.601 819.786V816.624C270.601 813.079 268.876 811.306 265.427 811.306H259.175C255.725 811.306 254 813.079 254 816.624V839.98C254 843.526 255.725 845.298 259.175 845.298H265.427C268.876 845.298 270.601 843.526 270.601 839.98V836.818C270.601 835.956 271.008 835.525 271.823 835.525H276.35C277.213 835.525 277.644 835.956 277.644 836.818V840.268C277.644 843.765 276.662 846.496 274.697 848.46C272.733 850.425 270.002 851.407 266.505 851.407Z" fill="black"/>
<path d="M210.892 851.407H205.717C205.047 851.407 204.807 851 204.999 850.185L217.503 806.419C217.743 805.605 218.318 805.197 219.228 805.197H226.415C227.373 805.197 227.948 805.605 228.139 806.419L240.644 850.185C240.836 851 240.572 851.407 239.853 851.407H234.751C234.32 851.407 234.008 851.335 233.817 851.191C233.673 851 233.553 850.664 233.457 850.185L230.726 840.843H214.916L212.185 850.185C211.994 851 211.562 851.407 210.892 851.407ZM222.678 812.096L216.353 835.093H229.361L222.965 812.096H222.678Z" fill="black"/>
<path d="M176.158 851.407H171.63C170.816 851.407 170.408 851 170.408 850.185V806.419C170.408 805.605 170.816 805.197 171.63 805.197H188.734C192.231 805.197 194.962 806.179 196.927 808.144C198.891 810.06 199.873 812.791 199.873 816.336V823.81C199.873 827.308 198.891 830.039 196.927 832.003C194.962 833.967 192.231 834.95 188.734 834.95H178.242C177.667 834.95 177.379 835.189 177.379 835.668V850.185C177.379 851 176.972 851.407 176.158 851.407ZM178.17 828.769H187.728C191.13 828.769 192.83 826.996 192.83 823.451V816.624C192.83 813.079 191.13 811.306 187.728 811.306H178.17C177.643 811.306 177.379 811.545 177.379 812.024V828.05C177.379 828.53 177.643 828.769 178.17 828.769Z" fill="black"/>
<path d="M130.174 840.196V838.327C130.174 837.513 130.582 837.106 131.396 837.106H135.995C136.81 837.106 137.217 837.513 137.217 838.327V839.621C137.217 841.633 137.648 843.094 138.511 844.005C139.421 844.867 140.906 845.298 142.966 845.298H147.925C149.985 845.298 151.47 844.843 152.381 843.933C153.291 842.975 153.746 841.441 153.746 839.333V837.68C153.746 836.147 153.147 834.95 151.95 834.087C150.8 833.177 149.362 832.602 147.638 832.362C145.913 832.075 144.02 831.692 141.96 831.213C139.9 830.733 138.008 830.183 136.283 829.56C134.558 828.937 133.097 827.763 131.899 826.038C130.749 824.313 130.174 822.11 130.174 819.427V816.408C130.174 812.911 131.156 810.18 133.121 808.216C135.133 806.203 137.888 805.197 141.385 805.197H149.003C152.548 805.197 155.303 806.203 157.268 808.216C159.28 810.18 160.286 812.911 160.286 816.408V817.989C160.286 818.804 159.879 819.211 159.064 819.211H154.465C153.65 819.211 153.243 818.804 153.243 817.989V817.055C153.243 814.995 152.788 813.534 151.878 812.671C151.015 811.761 149.554 811.306 147.494 811.306H142.966C140.906 811.306 139.421 811.785 138.511 812.743C137.648 813.653 137.217 815.234 137.217 817.486V819.714C137.217 821.87 138.774 823.331 141.888 824.098C143.278 824.433 144.787 824.721 146.416 824.96C148.093 825.2 149.77 825.559 151.446 826.038C153.123 826.517 154.656 827.164 156.046 827.979C157.435 828.745 158.561 829.943 159.424 831.572C160.286 833.153 160.717 835.093 160.717 837.393V840.196C160.717 843.693 159.711 846.448 157.699 848.46C155.734 850.425 153.004 851.407 149.506 851.407H141.457C137.96 851.407 135.205 850.425 133.193 848.46C131.18 846.448 130.174 843.693 130.174 840.196Z" fill="black"/>
<path d="M93.0018 851.407H85.3122C81.7669 851.407 79.012 850.425 77.0477 848.46C75.1313 846.496 74.1731 843.765 74.1731 840.268V816.336C74.1731 812.791 75.1313 810.06 77.0477 808.144C79.012 806.179 81.7669 805.197 85.3122 805.197H93.0018C96.5472 805.197 99.2781 806.179 101.195 808.144C103.159 810.06 104.141 812.791 104.141 816.336V818.924C104.141 819.786 103.734 820.217 102.919 820.217H98.3917C97.5773 820.217 97.17 819.786 97.17 818.924V816.624C97.17 813.079 95.4453 811.306 91.9957 811.306H86.3183C82.8688 811.306 81.144 813.079 81.144 816.624V839.98C81.144 843.526 82.8688 845.298 86.3183 845.298H91.9957C95.4453 845.298 97.17 843.526 97.17 839.98V833.512C97.17 833.033 96.9065 832.794 96.3795 832.794H90.5584C89.7439 832.794 89.3367 832.386 89.3367 831.572V827.907C89.3367 827.092 89.7439 826.685 90.5584 826.685H102.632C103.638 826.685 104.141 827.188 104.141 828.194V840.268C104.141 843.765 103.159 846.496 101.195 848.46C99.2302 850.425 96.4993 851.407 93.0018 851.407Z" fill="black"/>
<path d="M64.5813 851.407H41.5843C40.7698 851.407 40.3626 851 40.3626 850.185V806.419C40.3626 805.605 40.7698 805.197 41.5843 805.197H64.5813C65.3478 805.197 65.7311 805.605 65.7311 806.419V810.084C65.7311 810.899 65.3478 811.306 64.5813 811.306H48.1959C47.621 811.306 47.3335 811.545 47.3335 812.024V824.17C47.3335 824.649 47.621 824.888 48.1959 824.888H62.066C62.9284 824.888 63.3595 825.296 63.3595 826.11V829.775C63.3595 830.59 62.9284 830.997 62.066 830.997H48.1959C47.621 830.997 47.3335 831.237 47.3335 831.716V844.508C47.3335 845.035 47.621 845.298 48.1959 845.298H64.5813C65.3478 845.298 65.7311 845.705 65.7311 846.52V850.185C65.7311 851 65.3478 851.407 64.5813 851.407Z" fill="black"/>
<path d="M24.5061 805.197H29.0337C29.8961 805.197 30.3272 805.581 30.3272 806.347V840.268C30.3272 843.765 29.3211 846.496 27.3089 848.46C25.3446 850.425 22.6137 851.407 19.1162 851.407H11.1392C7.6417 851.407 4.91081 850.425 2.94649 848.46C0.982162 846.496 0 843.765 0 840.268V806.419C0 805.605 0.407238 805.197 1.22171 805.197H5.74924C6.56372 805.197 6.97095 805.605 6.97095 806.419V839.98C6.97095 843.526 8.69573 845.298 12.1453 845.298H18.0382C21.5357 845.298 23.2844 843.526 23.2844 839.98V806.419C23.2844 805.605 23.6917 805.197 24.5061 805.197Z" fill="black"/>
</svg>
